<svg width="23" height="22" viewBox="0 0 23 22" fill="none" xmlns="http://www.w3.org/2000/svg">
<g clip-path="url(#clip0)">
<path d="M18.422 0.785645H5.31156C4.48512 0.785645 3.81982 1.42379 3.81982 2.21204V20.3599C3.81982 21.1456 4.48512 21.7856 5.31156 21.7856H18.422C19.2458 21.7856 19.9144 21.1463 19.9144 20.3599V2.21204C19.9157 1.42379 19.2465 0.785645 18.422 0.785645ZM11.8674 21.2513C11.3769 21.2513 10.9801 20.8726 10.9801 20.405C10.9801 19.9367 11.3769 19.5574 11.8674 19.5574C12.3567 19.5574 12.7547 19.9367 12.7547 20.405C12.7547 20.8726 12.3567 21.2513 11.8674 21.2513ZM18.4045 18.8155H5.33033V2.4993H18.4045V18.8155Z" fill="white"/>
</g>
<defs>
<clipPath id="clip0">
<rect width="22" height="21" fill="white" transform="translate(0.867188 0.785645)"/>
</clipPath>
</defs>
</svg>
