<svg width="23" height="23" viewBox="0 0 23 23" fill="none" xmlns="http://www.w3.org/2000/svg">
<g clip-path="url(#clip0)">
<path d="M21.222 2.00171H2.51194C1.60489 2.00171 0.867188 2.73981 0.867188 3.64693V14.0848V14.9381V16.0099C0.867188 16.9174 1.60489 17.6547 2.51194 17.6547H9.90686C9.89876 18.2055 9.83988 18.9517 9.60606 19.4765H8.33381C8.03174 19.4765 7.78724 19.7214 7.78724 20.0231C7.78724 20.3256 8.03174 20.5697 8.33381 20.5697H15.4006C15.7027 20.5697 15.9472 20.3256 15.9472 20.0231C15.9472 19.7214 15.7027 19.4765 15.4006 19.4765H14.1279C13.8946 18.9521 13.8348 18.2055 13.8271 17.6547H21.2224C22.1295 17.6547 22.8672 16.917 22.8672 16.0099V14.9381V14.0847V3.64693C22.8667 2.73981 22.129 2.00171 21.222 2.00171ZM22.0134 16.0099C22.0134 16.4464 21.6585 16.8014 21.222 16.8014H2.51194C2.07544 16.8014 1.72047 16.4464 1.72047 16.0099V14.9381H22.0138V16.0098H22.0134V16.0099ZM1.72053 14.0852V3.64693C1.72053 3.21043 2.07551 2.85506 2.51201 2.85506H21.222C21.6585 2.85506 22.0135 3.2105 22.0135 3.64693V14.0848H1.72053V14.0852Z" fill="white"/>
</g>
<defs>
<clipPath id="clip0">
<rect width="22" height="22" fill="white" transform="translate(0.867188 0.285645)"/>
</clipPath>
</defs>
</svg>
