<svg width="26" height="26" viewBox="0 0 26 26" fill="none" xmlns="http://www.w3.org/2000/svg">
<g clip-path="url(#clip0)">
<path d="M25.8365 19.0793C25.8126 19.0516 25.7774 19.0352 25.7405 19.0352H0.994081C0.957115 19.0352 0.922202 19.0513 0.898071 19.0793C0.87394 19.107 0.863158 19.1443 0.868549 19.181C0.872143 19.2041 1.2454 21.4955 4.14241 21.4955H22.5921C25.4889 21.4955 25.8621 19.2041 25.866 19.181C25.8711 19.1443 25.8603 19.107 25.8365 19.0793ZM15.2283 20.693H11.506V19.8371H15.2283V20.693Z" fill="white"/>
<path d="M3.5647 18.1444H23.1699C23.4533 18.1444 23.6833 17.9144 23.6833 17.631V5.5896C23.6833 5.30619 23.4533 5.07617 23.1699 5.07617H3.5647C3.28128 5.07617 3.05127 5.30619 3.05127 5.5896V17.631C3.05127 17.9144 3.28128 18.1444 3.5647 18.1444ZM4.84826 6.87316H21.8863V16.3474H4.84826V6.87316Z" fill="white"/>
</g>
<defs>
<clipPath id="clip0">
<rect width="25" height="25" fill="white" transform="translate(0.867188 0.785645)"/>
</clipPath>
</defs>
</svg>
