<svg width="22" height="21" viewBox="0 0 22 21" fill="none" xmlns="http://www.w3.org/2000/svg">
<g clip-path="url(#clip0)">
<path d="M16.0484 0.285645H6.68598C5.90598 0.285645 5.26758 0.893073 5.26758 1.6365V18.9342C5.26758 19.6776 5.90598 20.2856 6.68598 20.2856H16.0484C16.8284 20.2856 17.4668 19.6788 17.4668 18.9348V1.6365C17.4668 0.893073 16.8284 0.285645 16.0484 0.285645ZM9.86958 1.25936H12.8648C12.9596 1.25936 13.0364 1.3325 13.0364 1.42336C13.0364 1.51364 12.9596 1.58679 12.8648 1.58679H9.86958C9.77478 1.58679 9.69798 1.51364 9.69798 1.42336C9.69798 1.3325 9.77478 1.25936 9.86958 1.25936ZM11.3672 19.6102C10.9754 19.6102 10.658 19.3079 10.658 18.9342C10.658 18.5605 10.9754 18.2588 11.3672 18.2588C11.759 18.2588 12.0764 18.5605 12.0764 18.9342C12.0764 19.3079 11.759 19.6102 11.3672 19.6102ZM16.4798 17.7856H6.25458V2.42793H16.4798V17.7856Z" fill="white"/>
</g>
<defs>
<clipPath id="clip0">
<rect width="21" height="20" fill="white" transform="translate(0.867188 0.285645)"/>
</clipPath>
</defs>
</svg>
